<mxfile host="app.diagrams.net" agent="Mozilla/5.0 (X11; Linux x86_64) AppleWebKit/537.36 (KHTML, like Gecko) Chrome/133.0.0.0 Safari/537.36" version="26.1.0">
  <diagram name="第 1 页" id="ymwS_IY8MIXRyYueqAV2">
    <mxGraphModel dx="600" dy="319" grid="1" gridSize="10" guides="1" tooltips="1" connect="1" arrows="1" fold="1" page="1" pageScale="1" pageWidth="1169" pageHeight="827" math="0" shadow="0">
      <root>
        <mxCell id="0" />
        <mxCell id="1" parent="0" />
        <mxCell id="_RP0dMVc5jquQAwwALMM-17" value="" style="endArrow=classic;html=1;rounded=0;strokeColor=default;arcSize=20;jumpSize=6;" parent="1" edge="1">
          <mxGeometry width="50" height="50" relative="1" as="geometry">
            <mxPoint x="527" y="467" as="sourcePoint" />
            <mxPoint x="527" y="520" as="targetPoint" />
          </mxGeometry>
        </mxCell>
        <mxCell id="fuRvOFpUO8J76H4Moy8X-2" value="" style="shape=parallelogram;perimeter=parallelogramPerimeter;whiteSpace=wrap;html=1;fixedSize=1;direction=south;flipH=1;fillColor=#808080;size=40;shadow=1;rounded=0;movable=0;resizable=0;rotatable=0;deletable=0;editable=0;locked=1;connectable=0;" vertex="1" parent="1">
          <mxGeometry x="364" y="350" width="40" height="150" as="geometry" />
        </mxCell>
        <mxCell id="fuRvOFpUO8J76H4Moy8X-3" value="" style="shape=cube;whiteSpace=wrap;html=1;boundedLbl=1;backgroundOutline=1;darkOpacity=0.05;darkOpacity2=0.1;flipH=1;size=12;movable=0;resizable=0;rotatable=0;deletable=0;editable=0;locked=1;connectable=0;fillColor=default;shadow=1;" vertex="1" parent="1">
          <mxGeometry x="379" y="378" width="160" height="91" as="geometry" />
        </mxCell>
        <mxCell id="fuRvOFpUO8J76H4Moy8X-4" value="" style="endArrow=classic;html=1;rounded=0;" edge="1" parent="1">
          <mxGeometry width="50" height="50" relative="1" as="geometry">
            <mxPoint x="533" y="463" as="sourcePoint" />
            <mxPoint x="533" y="515" as="targetPoint" />
          </mxGeometry>
        </mxCell>
        <mxCell id="fuRvOFpUO8J76H4Moy8X-5" value="" style="endArrow=classic;html=1;rounded=0;startFill=1;" edge="1" parent="1">
          <mxGeometry width="50" height="50" relative="1" as="geometry">
            <mxPoint x="539" y="457" as="sourcePoint" />
            <mxPoint x="539" y="510" as="targetPoint" />
          </mxGeometry>
        </mxCell>
        <mxCell id="fuRvOFpUO8J76H4Moy8X-6" value="" style="endArrow=classic;html=1;rounded=0;strokeColor=default;curved=0;shadow=0;" edge="1" parent="1">
          <mxGeometry width="50" height="50" relative="1" as="geometry">
            <mxPoint x="400" y="448" as="sourcePoint" />
            <mxPoint x="427" y="448" as="targetPoint" />
          </mxGeometry>
        </mxCell>
        <mxCell id="fuRvOFpUO8J76H4Moy8X-7" value="" style="endArrow=classic;html=1;rounded=0;strokeColor=default;curved=0;shadow=0;" edge="1" parent="1">
          <mxGeometry width="50" height="50" relative="1" as="geometry">
            <mxPoint x="400" y="448" as="sourcePoint" />
            <mxPoint x="400" y="422" as="targetPoint" />
          </mxGeometry>
        </mxCell>
        <mxCell id="fuRvOFpUO8J76H4Moy8X-8" value="" style="endArrow=classic;html=1;rounded=0;strokeColor=default;curved=0;shadow=0;entryX=0.909;entryY=0.135;entryDx=0;entryDy=0;entryPerimeter=0;" edge="1" parent="1">
          <mxGeometry width="50" height="50" relative="1" as="geometry">
            <mxPoint x="400" y="448" as="sourcePoint" />
            <mxPoint x="382" y="466" as="targetPoint" />
          </mxGeometry>
        </mxCell>
        <mxCell id="fuRvOFpUO8J76H4Moy8X-11" value="x" style="text;html=1;align=center;verticalAlign=middle;resizable=0;points=[];autosize=1;strokeColor=none;fillColor=none;fontSize=10;" vertex="1" parent="1">
          <mxGeometry x="412" y="427" width="30" height="30" as="geometry" />
        </mxCell>
        <mxCell id="fuRvOFpUO8J76H4Moy8X-12" value="y" style="text;html=1;align=center;verticalAlign=middle;resizable=0;points=[];autosize=1;strokeColor=none;fillColor=none;fontSize=10;" vertex="1" parent="1">
          <mxGeometry x="390" y="404" width="30" height="30" as="geometry" />
        </mxCell>
        <mxCell id="fuRvOFpUO8J76H4Moy8X-13" value="z" style="text;html=1;align=center;verticalAlign=middle;resizable=0;points=[];autosize=1;strokeColor=none;fillColor=none;fontSize=10;" vertex="1" parent="1">
          <mxGeometry x="372" y="437" width="30" height="30" as="geometry" />
        </mxCell>
      </root>
    </mxGraphModel>
  </diagram>
</mxfile>
